<?xml version="1.0" encoding="UTF-8" standalone="no"?>
<!DOCTYPE svg PUBLIC "-//W3C//DTD SVG 1.1//EN" "http://www.w3.org/Graphics/SVG/1.1/DTD/svg11.dtd">
<svg width="100%" height="100%" viewBox="0 0 1042 247" version="1.1" xmlns="http://www.w3.org/2000/svg" xmlns:xlink="http://www.w3.org/1999/xlink" xml:space="preserve" xmlns:serif="http://www.serif.com/" style="fill-rule:evenodd;clip-rule:evenodd;stroke-linecap:round;stroke-linejoin:round;stroke-miterlimit:1.5;">
    <g transform="matrix(1,0,0,1,-474.652,-478.478)">
        <g id="trunia" transform="matrix(1,0,0,1,-1.13687e-13,79.6581)">
            <g id="fat" transform="matrix(0.69596,0,0,0.69596,663.463,22.9281)">
                <g id="spirit.sm.l" transform="matrix(0.605411,0,0,0.710342,-295.492,385.353)">
                    <g transform="matrix(1.00865,0,0,1.00865,-6.24142,-4.43202)">
                        <path d="M707.473,358.92C702.673,348.345 700,336.603 700,324.242C700,282.635 730.288,248.045 770,241.338M630,428.525C630,389.89 661.366,358.525 700,358.525C702.527,358.525 705.022,358.659 707.48,358.92" style="fill:none;stroke:rgb(23,201,196);stroke-width:32.38px;"/>
                    </g>
                    <path d="M833.476,357.591C838.348,346.897 841.021,335.123 841.021,322.613C841.021,280.646 810.471,245.758 770.415,238.993M911.626,427.797C911.626,388.829 879.989,357.192 841.021,357.192C838.472,357.192 835.955,357.327 833.476,357.591" style="fill:none;stroke:rgb(23,201,196);stroke-width:32.66px;"/>
                    <g transform="matrix(2.16849,0,0,2.16849,502.19,72.486)">
                        <path d="M58.573,163.852L58.573,265.375M188.812,163.852L188.812,265.375" style="fill:none;stroke:rgb(23,201,196);stroke-width:15.06px;"/>
                    </g>
                </g>
                <g id="window" transform="matrix(0.581567,0,0,0.571665,-276.881,428.339)">
                    <g transform="matrix(1,0,0,0.922055,-2.44512,61.2872)">
                        <path d="M625.445,786.292L625.445,423.837" style="fill:none;stroke:rgb(23,201,196);stroke-width:38.83px;stroke-linecap:square;"/>
                    </g>
                    <g transform="matrix(1,0,0,0.925508,291.555,59.8238)">
                        <path d="M625.445,786.292L625.445,423.837" style="fill:none;stroke:rgb(23,201,196);stroke-width:38.77px;stroke-linecap:square;"/>
                    </g>
                    <path d="M623,452.088C623,347.99 683.074,257.812 770.415,214.361M770.415,214.776C857.307,258.385 917,348.32 917,452.088" style="fill:none;stroke:rgb(23,201,196);stroke-width:37.38px;"/>
                </g>
                <path d="M120.787,592.109C126.437,590.062 132.087,592.512 132.273,605.599L132.282,605.855L132.282,613.96C132.282,616.432 132.909,626.589 131.988,631.772C131.24,635.981 129.375,638.848 127.805,640.395C125.592,642.574 122.196,644.328 117.805,644.986C116.036,645.251 112.907,645.476 110.616,645.613C110.516,645.835 110.436,645.993 110.383,646.071C106.804,651.377 102.044,651.432 99.444,651.129C97.742,650.932 89.194,649.767 89.194,639.225C89.194,634.797 90.435,631.4 92.674,628.841C93.116,627.786 93.552,626.865 93.901,626.339C95.081,624.562 99.778,615.706 103.279,612.179C105.261,610.183 107.349,608.972 109.292,608.292L109.292,605.855L109.301,605.599C109.489,592.513 115.138,590.063 120.787,592.109Z" style="fill:rgb(23,201,196);"/>
                <path d="M233.17,645.212C229.362,644.38 222.211,642.898 218.503,641.668C214.873,640.464 212.611,638.684 211.668,637.693C210.011,635.951 208.144,632.726 207.614,628.067C206.931,622.072 208.5,610.348 208.5,607.204C208.5,600.86 213.651,595.709 219.995,595.709C226.34,595.709 231.49,600.86 231.49,607.204C231.49,607.657 231.462,608.455 231.412,609.472L231.526,609.685C232.951,612.534 241.15,620.791 245.593,625.152C247.736,626.086 249.918,627.199 251.244,628.105C253.709,629.789 255.04,631.691 255.666,632.853C258.307,637.756 257.273,641.936 254.895,645.248C253.666,646.96 251.147,650.038 245.289,650.198C242.908,650.263 238.76,649.355 234.298,646.08C233.932,645.812 233.554,645.522 233.17,645.212Z" style="fill:rgb(23,201,196);"/>
            </g>
            <g id="fat1" serif:id="fat" transform="matrix(0.69596,0,0,0.69596,544.794,22.9281)">
                <g id="spirit.sm.l1" serif:id="spirit.sm.l" transform="matrix(0.605411,0,0,0.710342,-295.492,385.353)">
                    <g transform="matrix(1.00865,0,0,1.00865,-6.24142,-4.43202)">
                        <path d="M707.473,358.92C702.673,348.345 700,336.603 700,324.242C700,282.635 730.288,248.045 770,241.338M630,428.525C630,389.89 661.366,358.525 700,358.525C702.527,358.525 705.022,358.659 707.48,358.92" style="fill:none;stroke:rgb(23,201,196);stroke-width:32.38px;"/>
                    </g>
                    <path d="M833.476,357.591C838.348,346.897 841.021,335.123 841.021,322.613C841.021,280.646 810.471,245.758 770.415,238.993M911.626,427.797C911.626,388.829 879.989,357.192 841.021,357.192C838.472,357.192 835.955,357.327 833.476,357.591" style="fill:none;stroke:rgb(23,201,196);stroke-width:32.66px;"/>
                    <g transform="matrix(2.16849,0,0,2.16849,502.19,72.486)">
                        <path d="M58.573,163.852L58.573,265.375M188.812,163.852L188.812,265.375" style="fill:none;stroke:rgb(23,201,196);stroke-width:15.06px;"/>
                    </g>
                </g>
                <g id="window1" serif:id="window" transform="matrix(0.581567,0,0,0.571665,-276.881,428.339)">
                    <g transform="matrix(1,0,0,0.922055,-2.44512,61.2872)">
                        <path d="M625.445,786.292L625.445,423.837" style="fill:none;stroke:rgb(23,201,196);stroke-width:38.83px;stroke-linecap:square;"/>
                    </g>
                    <g transform="matrix(1,0,0,0.925508,291.555,59.8238)">
                        <path d="M625.445,786.292L625.445,423.837" style="fill:none;stroke:rgb(23,201,196);stroke-width:38.77px;stroke-linecap:square;"/>
                    </g>
                    <path d="M623,452.088C623,347.99 683.074,257.812 770.415,214.361M770.415,214.776C857.307,258.385 917,348.32 917,452.088" style="fill:none;stroke:rgb(23,201,196);stroke-width:37.38px;"/>
                </g>
                <path d="M109.301,605.599C109.489,592.513 115.138,590.063 120.787,592.109C126.437,590.062 132.087,592.512 132.273,605.599L132.282,605.855L132.282,613.96C132.282,616.432 132.909,626.589 131.988,631.772C131.24,635.981 129.375,638.848 127.805,640.395C125.592,642.574 122.196,644.328 117.805,644.986C116.036,645.251 112.907,645.476 110.616,645.613C110.516,645.835 110.436,645.993 110.383,646.071C106.804,651.377 102.044,651.432 99.444,651.129C97.742,650.932 89.194,649.767 89.194,639.225C89.194,634.797 90.435,631.4 92.674,628.841C93.116,627.786 93.552,626.865 93.901,626.339C95.081,624.562 99.778,615.706 103.279,612.179C105.261,610.183 107.349,608.972 109.292,608.292L109.292,605.855L109.301,605.599Z" style="fill:rgb(23,201,196);"/>
                <path d="M233.17,645.212C229.362,644.38 222.211,642.898 218.503,641.668C214.873,640.464 212.611,638.684 211.668,637.693C210.011,635.951 208.144,632.726 207.614,628.067C206.931,622.072 208.5,610.348 208.5,607.204C208.5,600.86 213.651,595.709 219.995,595.709C226.34,595.709 231.49,600.86 231.49,607.204C231.49,607.657 231.462,608.455 231.412,609.472L231.526,609.685C232.951,612.534 241.15,620.791 245.593,625.152C247.736,626.086 249.918,627.199 251.244,628.105C253.709,629.789 255.04,631.691 255.666,632.853C258.307,637.756 257.273,641.936 254.895,645.248C253.666,646.96 251.147,650.038 245.289,650.198C242.908,650.263 238.76,649.355 234.298,646.08C233.932,645.812 233.554,645.522 233.17,645.212Z" style="fill:rgb(23,201,196);"/>
            </g>
            <g id="fat2" serif:id="fat" transform="matrix(0.69596,0,0,0.69596,425.798,22.9281)">
                <g id="spirit.sm.l2" serif:id="spirit.sm.l" transform="matrix(0.605411,0,0,0.710342,-295.492,385.353)">
                    <g transform="matrix(1.00865,0,0,1.00865,-6.24142,-4.43202)">
                        <path d="M707.473,358.92C702.673,348.345 700,336.603 700,324.242C700,282.635 730.288,248.045 770,241.338M630,428.525C630,389.89 661.366,358.525 700,358.525C702.527,358.525 705.022,358.659 707.48,358.92" style="fill:none;stroke:rgb(23,201,196);stroke-width:32.38px;"/>
                    </g>
                    <path d="M833.476,357.591C838.348,346.897 841.021,335.123 841.021,322.613C841.021,280.646 810.471,245.758 770.415,238.993M911.626,427.797C911.626,388.829 879.989,357.192 841.021,357.192C838.472,357.192 835.955,357.327 833.476,357.591" style="fill:none;stroke:rgb(23,201,196);stroke-width:32.66px;"/>
                    <g transform="matrix(2.16849,0,0,2.16849,502.19,72.486)">
                        <path d="M58.573,163.852L58.573,265.375M188.812,163.852L188.812,265.375" style="fill:none;stroke:rgb(23,201,196);stroke-width:15.06px;"/>
                    </g>
                </g>
                <g id="window2" serif:id="window" transform="matrix(0.581567,0,0,0.571665,-276.881,428.339)">
                    <g transform="matrix(1,0,0,0.922055,-2.44512,61.2872)">
                        <path d="M625.445,786.292L625.445,423.837" style="fill:none;stroke:rgb(23,201,196);stroke-width:38.83px;stroke-linecap:square;"/>
                    </g>
                    <g transform="matrix(1,0,0,0.925508,291.555,59.8238)">
                        <path d="M625.445,786.292L625.445,423.837" style="fill:none;stroke:rgb(23,201,196);stroke-width:38.77px;stroke-linecap:square;"/>
                    </g>
                    <path d="M623,452.088C623,347.99 683.074,257.812 770.415,214.361M770.415,214.776C857.307,258.385 917,348.32 917,452.088" style="fill:none;stroke:rgb(23,201,196);stroke-width:37.38px;"/>
                </g>
                <path d="M109.301,605.599C109.489,592.513 115.138,590.063 120.787,592.109C126.437,590.062 132.087,592.512 132.273,605.599L132.282,605.855L132.282,613.96C132.282,616.432 132.909,626.589 131.988,631.772C131.24,635.981 129.375,638.848 127.805,640.395C125.592,642.574 122.196,644.328 117.805,644.986C116.036,645.251 112.907,645.476 110.616,645.613C110.516,645.835 110.436,645.993 110.383,646.071C106.804,651.377 102.044,651.432 99.444,651.129C97.742,650.932 89.194,649.767 89.194,639.225C89.194,634.797 90.435,631.4 92.674,628.841C93.116,627.786 93.552,626.865 93.901,626.339C95.081,624.562 99.778,615.706 103.279,612.179C105.261,610.183 107.349,608.972 109.292,608.292L109.292,605.855L109.301,605.599Z" style="fill:rgb(23,201,196);"/>
                <path d="M233.17,645.212C229.362,644.38 222.211,642.898 218.503,641.668C214.873,640.464 212.611,638.684 211.668,637.693C210.011,635.951 208.144,632.726 207.614,628.067C206.931,622.072 208.5,610.348 208.5,607.204C208.5,600.86 213.651,595.709 219.995,595.709C226.34,595.709 231.49,600.86 231.49,607.204C231.49,607.657 231.462,608.455 231.412,609.472L231.526,609.685C232.951,612.534 241.15,620.791 245.593,625.152C247.736,626.086 249.918,627.199 251.244,628.105C253.709,629.789 255.04,631.691 255.666,632.853C258.307,637.756 257.273,641.936 254.895,645.248C253.666,646.96 251.147,650.038 245.289,650.198C242.908,650.263 238.76,649.355 234.298,646.08C233.932,645.812 233.554,645.522 233.17,645.212Z" style="fill:rgb(23,201,196);"/>
            </g>
            <g transform="matrix(9.00912,0,0,8.89277,495.83,-2570.14)">
                <g transform="matrix(7.19686,0,0,7.19686,45.5842,344.029)">
                    <path d="M0.238,0.013C0.209,0.013 0.182,0.007 0.157,-0.005C0.132,-0.017 0.113,-0.036 0.099,-0.061C0.084,-0.086 0.077,-0.119 0.077,-0.16L0.077,-0.51L0.147,-0.51L0.147,-0.146C0.147,-0.123 0.151,-0.105 0.16,-0.091C0.169,-0.076 0.18,-0.066 0.194,-0.059C0.207,-0.051 0.222,-0.048 0.238,-0.048C0.253,-0.048 0.268,-0.051 0.282,-0.059C0.296,-0.066 0.307,-0.076 0.316,-0.091C0.325,-0.106 0.329,-0.124 0.329,-0.146L0.329,-0.356C0.329,-0.395 0.336,-0.426 0.351,-0.451C0.365,-0.476 0.384,-0.494 0.408,-0.506C0.432,-0.517 0.458,-0.523 0.487,-0.523C0.516,-0.523 0.542,-0.517 0.566,-0.506C0.59,-0.494 0.609,-0.476 0.624,-0.451C0.638,-0.426 0.645,-0.395 0.645,-0.356L0.645,-0.146C0.645,-0.124 0.649,-0.106 0.658,-0.091C0.667,-0.076 0.678,-0.066 0.693,-0.059C0.707,-0.051 0.722,-0.048 0.738,-0.048C0.753,-0.048 0.768,-0.051 0.782,-0.059C0.795,-0.066 0.806,-0.076 0.815,-0.091C0.824,-0.106 0.828,-0.124 0.828,-0.146L0.828,-0.51L0.898,-0.51L0.898,-0.16C0.898,-0.119 0.891,-0.086 0.877,-0.061C0.862,-0.036 0.843,-0.017 0.819,-0.005C0.794,0.007 0.767,0.013 0.738,0.013C0.708,0.013 0.681,0.007 0.656,-0.005C0.631,-0.017 0.612,-0.036 0.597,-0.061C0.582,-0.086 0.575,-0.119 0.575,-0.16L0.575,-0.366C0.575,-0.389 0.571,-0.408 0.563,-0.422C0.554,-0.436 0.543,-0.446 0.53,-0.453C0.517,-0.459 0.502,-0.462 0.487,-0.462C0.472,-0.462 0.458,-0.459 0.445,-0.453C0.432,-0.446 0.421,-0.436 0.412,-0.422C0.403,-0.408 0.399,-0.389 0.399,-0.366L0.399,-0.16C0.399,-0.119 0.392,-0.086 0.377,-0.061C0.362,-0.036 0.343,-0.017 0.319,-0.005C0.295,0.007 0.268,0.013 0.238,0.013Z" style="fill-rule:nonzero;"/>
                </g>
                <g transform="matrix(7.19686,0,0,7.19686,54.9041,344.029)">
                    <path d="M0.066,0L0.066,-0.061L0.306,-0.061C0.327,-0.061 0.344,-0.065 0.358,-0.074C0.372,-0.083 0.383,-0.094 0.391,-0.108C0.398,-0.122 0.402,-0.136 0.402,-0.151C0.402,-0.166 0.399,-0.179 0.392,-0.192C0.385,-0.204 0.376,-0.214 0.363,-0.222C0.35,-0.23 0.334,-0.234 0.315,-0.234L0.208,-0.234C0.175,-0.234 0.147,-0.24 0.124,-0.251C0.1,-0.262 0.082,-0.277 0.07,-0.298C0.057,-0.319 0.051,-0.343 0.051,-0.37C0.051,-0.395 0.057,-0.418 0.069,-0.439C0.081,-0.46 0.098,-0.478 0.12,-0.491C0.142,-0.503 0.168,-0.51 0.197,-0.51L0.428,-0.51L0.428,-0.449L0.204,-0.449C0.178,-0.449 0.158,-0.441 0.143,-0.426C0.128,-0.41 0.121,-0.392 0.121,-0.372C0.121,-0.353 0.128,-0.335 0.143,-0.32C0.158,-0.305 0.18,-0.297 0.209,-0.297L0.309,-0.297C0.345,-0.297 0.375,-0.291 0.4,-0.279C0.424,-0.267 0.442,-0.25 0.455,-0.229C0.467,-0.208 0.473,-0.183 0.473,-0.154C0.473,-0.128 0.466,-0.103 0.453,-0.08C0.44,-0.056 0.422,-0.037 0.399,-0.022C0.376,-0.007 0.349,0 0.318,0L0.066,0Z" style="fill-rule:nonzero;"/>
                </g>
                <g transform="matrix(7.19686,0,0,7.19686,60.8919,344.029)">
                    <path d="M0.333,-0.523C0.286,-0.523 0.243,-0.513 0.204,-0.492C0.165,-0.471 0.133,-0.441 0.11,-0.401C0.087,-0.361 0.075,-0.313 0.075,-0.256L0.075,0.22L0.145,0.22L0.145,-0.105L0.147,-0.105C0.158,-0.082 0.174,-0.062 0.194,-0.045C0.214,-0.027 0.237,-0.013 0.262,-0.003C0.287,0.007 0.314,0.012 0.342,0.012C0.388,0.012 0.43,0.001 0.468,-0.02C0.505,-0.041 0.535,-0.072 0.558,-0.111C0.581,-0.15 0.592,-0.196 0.592,-0.251C0.592,-0.294 0.585,-0.332 0.572,-0.366C0.559,-0.399 0.54,-0.428 0.517,-0.451C0.493,-0.474 0.465,-0.492 0.434,-0.505C0.403,-0.517 0.369,-0.523 0.333,-0.523ZM0.332,-0.462C0.366,-0.462 0.397,-0.454 0.426,-0.438C0.455,-0.421 0.478,-0.398 0.495,-0.367C0.512,-0.335 0.521,-0.298 0.521,-0.255C0.521,-0.213 0.512,-0.177 0.495,-0.146C0.478,-0.115 0.455,-0.091 0.427,-0.074C0.398,-0.057 0.367,-0.049 0.334,-0.049C0.301,-0.049 0.27,-0.057 0.241,-0.074C0.212,-0.09 0.189,-0.113 0.172,-0.144C0.155,-0.175 0.146,-0.212 0.146,-0.256C0.146,-0.3 0.155,-0.337 0.172,-0.368C0.189,-0.399 0.211,-0.422 0.24,-0.438C0.268,-0.454 0.299,-0.462 0.332,-0.462Z" style="fill-rule:nonzero;"/>
                </g>
                <g transform="matrix(7.19686,0,0,7.19686,67.7433,344.029)">
                    <path d="M0.315,0.013C0.264,0.013 0.218,0.001 0.178,-0.023C0.138,-0.046 0.107,-0.078 0.084,-0.119C0.061,-0.16 0.05,-0.205 0.05,-0.255C0.05,-0.305 0.061,-0.35 0.084,-0.391C0.107,-0.432 0.138,-0.464 0.178,-0.488C0.218,-0.511 0.264,-0.523 0.315,-0.523C0.366,-0.523 0.412,-0.511 0.452,-0.488C0.491,-0.464 0.523,-0.432 0.546,-0.391C0.568,-0.35 0.58,-0.305 0.58,-0.255C0.58,-0.205 0.568,-0.16 0.546,-0.119C0.523,-0.078 0.491,-0.046 0.452,-0.023C0.412,0.001 0.366,0.013 0.315,0.013ZM0.315,-0.048C0.353,-0.048 0.387,-0.057 0.416,-0.076C0.445,-0.094 0.468,-0.119 0.485,-0.15C0.501,-0.181 0.509,-0.216 0.509,-0.255C0.509,-0.294 0.501,-0.329 0.485,-0.36C0.468,-0.391 0.445,-0.416 0.416,-0.435C0.387,-0.453 0.353,-0.462 0.315,-0.462C0.276,-0.462 0.243,-0.453 0.214,-0.435C0.185,-0.416 0.162,-0.391 0.146,-0.36C0.129,-0.329 0.121,-0.294 0.121,-0.255C0.121,-0.216 0.129,-0.181 0.146,-0.15C0.162,-0.119 0.185,-0.094 0.214,-0.076C0.243,-0.057 0.276,-0.048 0.315,-0.048ZM0.289,-0.577L0.385,-0.7L0.453,-0.7L0.357,-0.577L0.289,-0.577Z" style="fill-rule:nonzero;"/>
                </g>
                <g transform="matrix(7.19686,0,0,7.19686,74.5084,344.029)">
                    <path d="M0,-0.32L0,-0.367L0.224,-0.446L0.224,-0.399L0,-0.32ZM0.077,0L0.077,-0.73L0.147,-0.73L0.147,0L0.077,0Z" style="fill-rule:nonzero;"/>
                </g>
                <g transform="matrix(7.19686,0,0,7.19686,78.4954,344.029)">
                    <path d="M0.325,0C0.272,0 0.225,-0.011 0.184,-0.034C0.143,-0.057 0.11,-0.087 0.086,-0.126C0.062,-0.164 0.05,-0.207 0.05,-0.255C0.05,-0.303 0.062,-0.346 0.086,-0.385C0.11,-0.423 0.143,-0.453 0.184,-0.476C0.225,-0.499 0.272,-0.51 0.325,-0.51L0.383,-0.51L0.383,-0.449L0.32,-0.449C0.283,-0.449 0.25,-0.44 0.22,-0.424C0.19,-0.407 0.166,-0.383 0.148,-0.354C0.13,-0.325 0.121,-0.292 0.121,-0.255C0.121,-0.218 0.13,-0.185 0.148,-0.156C0.166,-0.127 0.19,-0.103 0.22,-0.087C0.25,-0.07 0.283,-0.061 0.32,-0.061L0.383,-0.061L0.383,0L0.325,0Z" style="fill-rule:nonzero;"/>
                </g>
                <g transform="matrix(7.19686,0,0,7.19686,83.8643,344.029)">
                    <path d="M0.143,0C0.123,0 0.105,-0.005 0.09,-0.015C0.074,-0.024 0.061,-0.037 0.052,-0.052C0.043,-0.067 0.038,-0.084 0.038,-0.103C0.038,-0.124 0.043,-0.143 0.053,-0.159C0.063,-0.175 0.079,-0.189 0.1,-0.202L0.348,-0.356C0.362,-0.364 0.371,-0.372 0.375,-0.38C0.378,-0.388 0.38,-0.397 0.38,-0.406C0.38,-0.417 0.376,-0.427 0.368,-0.436C0.359,-0.445 0.348,-0.449 0.333,-0.449L0.063,-0.449L0.063,-0.51L0.355,-0.51C0.375,-0.51 0.393,-0.505 0.408,-0.496C0.423,-0.486 0.436,-0.473 0.445,-0.458C0.454,-0.443 0.458,-0.426 0.458,-0.407C0.458,-0.386 0.453,-0.367 0.444,-0.351C0.434,-0.335 0.418,-0.321 0.397,-0.308L0.15,-0.154C0.136,-0.146 0.127,-0.138 0.123,-0.13C0.118,-0.122 0.116,-0.113 0.116,-0.104C0.116,-0.093 0.121,-0.083 0.13,-0.074C0.139,-0.065 0.15,-0.061 0.165,-0.061L0.45,-0.061L0.45,0L0.143,0Z" style="fill-rule:nonzero;"/>
                </g>
                <g transform="matrix(7.19686,0,0,7.19686,89.9312,344.029)">
                    <path d="M0.336,0C0.281,0 0.233,-0.01 0.19,-0.031C0.147,-0.051 0.113,-0.08 0.088,-0.118C0.063,-0.156 0.05,-0.202 0.05,-0.255C0.05,-0.304 0.06,-0.349 0.08,-0.39C0.1,-0.43 0.128,-0.462 0.165,-0.486C0.201,-0.51 0.243,-0.522 0.292,-0.522C0.342,-0.522 0.384,-0.511 0.419,-0.489C0.454,-0.467 0.48,-0.437 0.498,-0.4C0.516,-0.363 0.525,-0.321 0.525,-0.274C0.525,-0.267 0.525,-0.26 0.524,-0.252C0.523,-0.244 0.522,-0.237 0.521,-0.231L0.124,-0.231C0.126,-0.194 0.137,-0.162 0.156,-0.137C0.175,-0.112 0.201,-0.093 0.232,-0.08C0.263,-0.067 0.296,-0.061 0.332,-0.061L0.461,-0.061L0.461,0L0.336,0ZM0.124,-0.281L0.454,-0.281C0.454,-0.294 0.453,-0.309 0.45,-0.326C0.447,-0.342 0.443,-0.358 0.436,-0.374C0.428,-0.39 0.419,-0.405 0.407,-0.418C0.394,-0.431 0.379,-0.442 0.36,-0.451C0.341,-0.459 0.317,-0.463 0.29,-0.463C0.265,-0.463 0.242,-0.458 0.221,-0.447C0.2,-0.436 0.183,-0.422 0.169,-0.405C0.155,-0.387 0.144,-0.367 0.137,-0.346C0.129,-0.325 0.125,-0.303 0.124,-0.281Z" style="fill-rule:nonzero;"/>
                </g>
                <g transform="matrix(7.19686,0,0,7.19686,96.358,344.029)">
                    <path d="M0.066,0L0.066,-0.061L0.306,-0.061C0.327,-0.061 0.344,-0.065 0.358,-0.074C0.372,-0.083 0.383,-0.094 0.391,-0.108C0.398,-0.122 0.402,-0.136 0.402,-0.151C0.402,-0.166 0.399,-0.179 0.392,-0.192C0.385,-0.204 0.376,-0.214 0.363,-0.222C0.35,-0.23 0.334,-0.234 0.315,-0.234L0.208,-0.234C0.175,-0.234 0.147,-0.24 0.124,-0.251C0.1,-0.262 0.082,-0.277 0.07,-0.298C0.057,-0.319 0.051,-0.343 0.051,-0.37C0.051,-0.395 0.057,-0.418 0.069,-0.439C0.081,-0.46 0.098,-0.478 0.12,-0.491C0.142,-0.503 0.168,-0.51 0.197,-0.51L0.428,-0.51L0.428,-0.449L0.204,-0.449C0.178,-0.449 0.158,-0.441 0.143,-0.426C0.128,-0.41 0.121,-0.392 0.121,-0.372C0.121,-0.353 0.128,-0.335 0.143,-0.32C0.158,-0.305 0.18,-0.297 0.209,-0.297L0.309,-0.297C0.345,-0.297 0.375,-0.291 0.4,-0.279C0.424,-0.267 0.442,-0.25 0.455,-0.229C0.467,-0.208 0.473,-0.183 0.473,-0.154C0.473,-0.128 0.466,-0.103 0.453,-0.08C0.44,-0.056 0.422,-0.037 0.399,-0.022C0.376,-0.007 0.349,0 0.318,0L0.066,0Z" style="fill-rule:nonzero;"/>
                </g>
                <g transform="matrix(7.19686,0,0,7.19686,102.49,344.029)">
                    <path d="M0.077,0L0.077,-0.297C0.077,-0.344 0.088,-0.384 0.109,-0.418C0.13,-0.451 0.158,-0.477 0.193,-0.496C0.228,-0.514 0.267,-0.523 0.31,-0.523C0.353,-0.523 0.393,-0.514 0.428,-0.496C0.462,-0.477 0.491,-0.451 0.512,-0.418C0.533,-0.384 0.543,-0.344 0.543,-0.297L0.543,0L0.473,0L0.473,-0.294C0.473,-0.329 0.465,-0.36 0.45,-0.385C0.435,-0.409 0.415,-0.429 0.39,-0.442C0.365,-0.455 0.338,-0.462 0.309,-0.462C0.281,-0.462 0.255,-0.456 0.23,-0.443C0.205,-0.43 0.185,-0.411 0.17,-0.386C0.155,-0.361 0.147,-0.33 0.147,-0.294L0.147,0L0.077,0Z" style="fill-rule:nonzero;"/>
                </g>
                <g transform="matrix(7.19686,0,0,7.19686,109.255,344.029)">
                    <path d="M0.276,0.203L0.276,0.01C0.239,0.005 0.205,-0.007 0.175,-0.026C0.145,-0.045 0.121,-0.07 0.104,-0.102C0.086,-0.134 0.077,-0.171 0.077,-0.213L0.077,-0.51L0.147,-0.51L0.147,-0.216C0.147,-0.181 0.155,-0.15 0.171,-0.125C0.186,-0.1 0.206,-0.081 0.231,-0.068C0.256,-0.055 0.282,-0.048 0.31,-0.048C0.339,-0.048 0.366,-0.055 0.391,-0.068C0.416,-0.081 0.436,-0.1 0.452,-0.126C0.467,-0.151 0.475,-0.181 0.475,-0.216L0.475,-0.51L0.544,-0.51L0.544,-0.213C0.544,-0.17 0.535,-0.133 0.518,-0.102C0.5,-0.07 0.476,-0.045 0.446,-0.026C0.416,-0.007 0.383,0.005 0.346,0.009L0.346,0.203L0.276,0.203Z" style="fill-rule:nonzero;"/>
                </g>
                <g transform="matrix(12.118,0,0,12.118,45.5842,356.753)">
                    <path d="M0.066,0L0.066,-0.079L0.31,-0.079C0.326,-0.079 0.34,-0.083 0.352,-0.09C0.363,-0.096 0.372,-0.106 0.378,-0.117C0.384,-0.128 0.387,-0.14 0.387,-0.153C0.387,-0.165 0.384,-0.176 0.379,-0.187C0.374,-0.197 0.366,-0.205 0.355,-0.212C0.343,-0.218 0.33,-0.221 0.315,-0.221L0.212,-0.221C0.179,-0.221 0.151,-0.227 0.127,-0.238C0.102,-0.249 0.083,-0.265 0.07,-0.286C0.056,-0.307 0.049,-0.333 0.049,-0.364C0.049,-0.39 0.055,-0.414 0.068,-0.436C0.081,-0.458 0.098,-0.476 0.121,-0.49C0.144,-0.503 0.17,-0.51 0.199,-0.51L0.434,-0.51L0.434,-0.431L0.208,-0.431C0.187,-0.431 0.171,-0.425 0.159,-0.412C0.147,-0.399 0.141,-0.384 0.141,-0.367C0.141,-0.35 0.147,-0.336 0.16,-0.324C0.172,-0.311 0.189,-0.305 0.212,-0.305L0.31,-0.305C0.347,-0.305 0.378,-0.299 0.403,-0.288C0.428,-0.276 0.447,-0.259 0.46,-0.237C0.472,-0.215 0.479,-0.188 0.479,-0.156C0.479,-0.129 0.472,-0.103 0.459,-0.08C0.446,-0.056 0.427,-0.037 0.404,-0.022C0.38,-0.007 0.352,0 0.321,0L0.066,0Z" style="fill:rgb(23,201,196);fill-rule:nonzero;"/>
                </g>
                <g transform="matrix(12.118,0,0,12.118,52.4551,356.753)">
                    <path d="M0.32,0C0.267,0 0.22,-0.011 0.179,-0.034C0.138,-0.057 0.105,-0.087 0.081,-0.126C0.057,-0.164 0.045,-0.207 0.045,-0.255C0.045,-0.303 0.057,-0.346 0.081,-0.385C0.105,-0.423 0.138,-0.453 0.179,-0.476C0.22,-0.499 0.267,-0.51 0.32,-0.51L0.38,-0.51L0.38,-0.431L0.317,-0.431C0.283,-0.431 0.253,-0.423 0.226,-0.408C0.199,-0.392 0.177,-0.371 0.162,-0.344C0.146,-0.317 0.138,-0.288 0.138,-0.255C0.138,-0.222 0.146,-0.193 0.162,-0.166C0.177,-0.139 0.199,-0.118 0.226,-0.103C0.253,-0.087 0.283,-0.079 0.317,-0.079L0.38,-0.079L0.38,0L0.32,0Z" style="fill-rule:nonzero;"/>
                </g>
                <g transform="matrix(12.118,0,0,12.118,57.9324,356.753)">
                    <path d="M0.073,0L0.073,-0.73L0.165,-0.73L0.165,-0.444C0.186,-0.471 0.211,-0.49 0.241,-0.503C0.27,-0.516 0.301,-0.522 0.333,-0.522C0.378,-0.522 0.418,-0.513 0.451,-0.494C0.484,-0.474 0.51,-0.448 0.529,-0.414C0.548,-0.38 0.557,-0.34 0.557,-0.295L0.557,0L0.465,0L0.465,-0.294C0.465,-0.325 0.458,-0.351 0.444,-0.374C0.43,-0.396 0.411,-0.413 0.389,-0.425C0.366,-0.437 0.341,-0.443 0.315,-0.443C0.289,-0.443 0.265,-0.437 0.242,-0.426C0.219,-0.414 0.201,-0.397 0.187,-0.375C0.172,-0.353 0.165,-0.327 0.165,-0.296L0.165,0L0.073,0Z" style="fill-rule:nonzero;"/>
                </g>
                <g transform="matrix(12.118,0,0,12.118,66.0515,356.753)">
                    <path d="M0.313,0.012C0.261,0.012 0.215,0 0.175,-0.024C0.135,-0.047 0.103,-0.079 0.08,-0.12C0.057,-0.16 0.045,-0.205 0.045,-0.255C0.045,-0.305 0.057,-0.35 0.08,-0.391C0.103,-0.431 0.135,-0.463 0.175,-0.487C0.215,-0.51 0.261,-0.522 0.313,-0.522C0.365,-0.522 0.411,-0.51 0.452,-0.487C0.492,-0.463 0.524,-0.431 0.547,-0.391C0.57,-0.35 0.581,-0.305 0.581,-0.255C0.581,-0.205 0.57,-0.16 0.547,-0.12C0.524,-0.079 0.492,-0.047 0.452,-0.024C0.411,0 0.365,0.012 0.313,0.012ZM0.313,-0.067C0.348,-0.067 0.379,-0.075 0.405,-0.092C0.431,-0.109 0.451,-0.131 0.466,-0.16C0.481,-0.188 0.488,-0.22 0.488,-0.255C0.488,-0.29 0.481,-0.322 0.466,-0.351C0.451,-0.379 0.431,-0.401 0.405,-0.418C0.379,-0.435 0.348,-0.443 0.313,-0.443C0.278,-0.443 0.248,-0.435 0.222,-0.418C0.195,-0.401 0.175,-0.379 0.16,-0.351C0.145,-0.322 0.138,-0.29 0.138,-0.255C0.138,-0.22 0.145,-0.188 0.16,-0.16C0.175,-0.131 0.195,-0.109 0.222,-0.092C0.248,-0.075 0.278,-0.067 0.313,-0.067Z" style="fill-rule:nonzero;"/>
                </g>
                <g transform="matrix(12.118,0,0,12.118,74.2432,356.753)">
                    <rect x="0.073" y="-0.73" width="0.092" height="0.73" style="fill-rule:nonzero;"/>
                </g>
                <g transform="matrix(12.118,0,0,12.118,77.7332,356.753)">
                    <path d="M0.285,0.012C0.236,0.012 0.193,0 0.157,-0.024C0.121,-0.047 0.093,-0.079 0.074,-0.12C0.055,-0.161 0.045,-0.206 0.045,-0.255C0.045,-0.305 0.056,-0.35 0.077,-0.391C0.098,-0.431 0.129,-0.463 0.169,-0.487C0.209,-0.51 0.257,-0.522 0.313,-0.522C0.367,-0.522 0.413,-0.51 0.452,-0.487C0.491,-0.464 0.521,-0.432 0.542,-0.392C0.563,-0.352 0.573,-0.307 0.573,-0.258L0.573,0L0.48,0L0.48,-0.104L0.478,-0.104C0.468,-0.085 0.455,-0.066 0.438,-0.049C0.421,-0.031 0.399,-0.016 0.374,-0.005C0.349,0.006 0.319,0.012 0.285,0.012ZM0.309,-0.067C0.342,-0.067 0.372,-0.075 0.398,-0.092C0.423,-0.108 0.443,-0.131 0.458,-0.16C0.472,-0.189 0.479,-0.221 0.479,-0.257C0.479,-0.292 0.472,-0.324 0.459,-0.352C0.445,-0.38 0.425,-0.402 0.4,-0.419C0.375,-0.435 0.345,-0.443 0.311,-0.443C0.275,-0.443 0.244,-0.435 0.219,-0.418C0.193,-0.401 0.173,-0.379 0.16,-0.351C0.146,-0.322 0.139,-0.29 0.139,-0.254C0.139,-0.219 0.146,-0.188 0.159,-0.16C0.172,-0.131 0.192,-0.109 0.217,-0.092C0.242,-0.075 0.273,-0.067 0.309,-0.067Z" style="fill-rule:nonzero;"/>
                </g>
                <g transform="matrix(12.118,0,0,12.118,86.0461,356.753)">
                    <path d="M0.066,0L0.066,-0.079L0.31,-0.079C0.326,-0.079 0.34,-0.083 0.352,-0.09C0.363,-0.096 0.372,-0.106 0.378,-0.117C0.384,-0.128 0.387,-0.14 0.387,-0.153C0.387,-0.165 0.384,-0.176 0.379,-0.187C0.374,-0.197 0.366,-0.205 0.355,-0.212C0.343,-0.218 0.33,-0.221 0.315,-0.221L0.212,-0.221C0.179,-0.221 0.151,-0.227 0.127,-0.238C0.102,-0.249 0.083,-0.265 0.07,-0.286C0.056,-0.307 0.049,-0.333 0.049,-0.364C0.049,-0.39 0.055,-0.414 0.068,-0.436C0.081,-0.458 0.098,-0.476 0.121,-0.49C0.144,-0.503 0.17,-0.51 0.199,-0.51L0.434,-0.51L0.434,-0.431L0.208,-0.431C0.187,-0.431 0.171,-0.425 0.159,-0.412C0.147,-0.399 0.141,-0.384 0.141,-0.367C0.141,-0.35 0.147,-0.336 0.16,-0.324C0.172,-0.311 0.189,-0.305 0.212,-0.305L0.31,-0.305C0.347,-0.305 0.378,-0.299 0.403,-0.288C0.428,-0.276 0.447,-0.259 0.46,-0.237C0.472,-0.215 0.479,-0.188 0.479,-0.156C0.479,-0.129 0.472,-0.103 0.459,-0.08C0.446,-0.056 0.427,-0.037 0.404,-0.022C0.38,-0.007 0.352,0 0.321,0L0.066,0Z" style="fill-rule:nonzero;"/>
                </g>
                <g transform="matrix(12.118,0,0,12.118,92.8564,356.753)">
                    <path d="M0.247,0C0.202,0 0.166,-0.013 0.141,-0.039C0.115,-0.065 0.102,-0.1 0.102,-0.145L0.102,-0.638L0.194,-0.638L0.194,-0.151C0.194,-0.129 0.2,-0.112 0.213,-0.099C0.225,-0.086 0.242,-0.079 0.264,-0.079L0.367,-0.079L0.367,0L0.247,0ZM0.014,-0.431L0.014,-0.51L0.369,-0.51L0.369,-0.431L0.014,-0.431Z" style="fill-rule:nonzero;"/>
                </g>
                <g transform="matrix(12.118,0,0,12.118,98.3943,356.753)">
                    <path d="M0.266,0.203L0.266,0.008C0.229,0.003 0.196,-0.01 0.167,-0.03C0.137,-0.049 0.115,-0.075 0.098,-0.107C0.081,-0.138 0.073,-0.174 0.073,-0.215L0.073,-0.51L0.166,-0.51L0.166,-0.216C0.166,-0.185 0.173,-0.159 0.186,-0.137C0.199,-0.114 0.217,-0.097 0.24,-0.085C0.262,-0.073 0.286,-0.067 0.311,-0.067C0.337,-0.067 0.361,-0.073 0.384,-0.085C0.406,-0.097 0.424,-0.114 0.438,-0.137C0.451,-0.159 0.458,-0.185 0.458,-0.216L0.458,-0.51L0.55,-0.51L0.55,-0.215C0.55,-0.174 0.542,-0.138 0.526,-0.107C0.509,-0.076 0.487,-0.05 0.458,-0.031C0.429,-0.011 0.395,0.002 0.358,0.008L0.358,0.203L0.266,0.203Z" style="fill-rule:nonzero;"/>
                </g>
                <g transform="matrix(12.118,0,0,12.118,106.55,356.753)">
                    <path d="M0.073,0L0.073,-0.73L0.165,-0.73L0.165,-0.296L0.305,-0.296L0.439,-0.51L0.541,-0.51L0.396,-0.282C0.444,-0.268 0.482,-0.242 0.509,-0.204C0.536,-0.165 0.549,-0.121 0.549,-0.07L0.549,0L0.456,0L0.456,-0.07C0.456,-0.098 0.45,-0.123 0.438,-0.145C0.425,-0.167 0.408,-0.185 0.386,-0.198C0.364,-0.211 0.339,-0.217 0.31,-0.217L0.165,-0.217L0.165,0L0.073,0Z" style="fill-rule:nonzero;"/>
                </g>
            </g>
        </g>
    </g>
</svg>
